<svg xmlns="http://www.w3.org/2000/svg" viewBox="0 0 1280 640">
  <defs>

    <linearGradient id="brand" x1="0%" y1="0%" x2="100%" y2="100%">
      <stop offset="0%" stop-color="#14E8E8"/>
      <stop offset="42%" stop-color="#2688FF"/>
      <stop offset="72%" stop-color="#7D45F6"/>
      <stop offset="100%" stop-color="#ED2ACD"/>
    </linearGradient>

    <linearGradient id="background" x1="0" y1="0" x2="1" y2="1">
      <stop offset="0%" stop-color="#0A0D13"/>
      <stop offset="58%" stop-color="#151A24"/>
      <stop offset="100%" stop-color="#0B0E14"/>
    </linearGradient>
    <radialGradient id="aura" cx="25%" cy="50%" r="55%">
      <stop offset="0%" stop-color="#2688FF" stop-opacity="0.16"/>
      <stop offset="100%" stop-color="#2688FF" stop-opacity="0"/>
    </radialGradient>
  </defs>
  <rect width="1280" height="640" fill="url(#background)"/>
  <rect width="1280" height="640" fill="url(#aura)"/>
  <g transform="translate(82 92) scale(.445)">
    <rect x="32" y="32" width="960" height="960" rx="220" fill="#111620"
          stroke="#313949" stroke-width="4"/>
    <path d="M 230 190 V 650 Q 230 805 385 805 H 650 Q 805 805 805 650 Q 805 545 700 545 H 600 Q 505 545 505 450 Q 505 355 600 355 H 710" fill="none" stroke="url(#brand)" stroke-width="118" stroke-linecap="round" stroke-linejoin="round"/>
  </g>
  <path d="M 633.688 286.000 L 588.656 286.000 L 588.656 210.375 L 605.688 210.375 L 605.688 272.188 L 633.688 272.188 L 633.688 286.000 M 693.328 286.000 L 676.719 286.000 L 676.719 277.766 L 676.453 277.766 C 672.339 284.130 666.833 287.312 659.938 287.312 C 647.427 287.312 641.172 279.740 641.172 264.594 L 641.172 232.000 L 657.781 232.000 L 657.781 263.109 C 657.781 270.745 660.807 274.562 666.859 274.562 C 669.839 274.562 672.227 273.516 674.023 271.422 C 675.820 269.328 676.719 266.490 676.719 262.906 L 676.719 232.000 L 693.328 232.000 L 693.328 286.000 M 792.766 286.000 L 776.156 286.000 L 776.156 255.203 C 776.156 247.359 773.271 243.438 767.500 243.438 C 764.760 243.438 762.529 244.617 760.805 246.977 C 759.081 249.336 758.219 252.271 758.219 255.781 L 758.219 286.000 L 741.562 286.000 L 741.562 254.891 C 741.562 247.255 738.729 243.438 733.062 243.438 C 730.219 243.438 727.943 244.562 726.234 246.812 C 724.526 249.062 723.672 252.125 723.672 256.000 L 723.672 286.000 L 707.016 286.000 L 707.016 232.000 L 723.672 232.000 L 723.672 240.438 L 723.891 240.438 C 725.609 237.552 728.026 235.206 731.141 233.398 C 734.255 231.591 737.656 230.688 741.344 230.688 C 748.969 230.688 754.188 234.042 757.000 240.750 C 761.115 234.042 767.161 230.688 775.141 230.688 C 786.891 230.688 792.766 237.927 792.766 252.406 L 792.766 286.000 M 814.453 223.453 C 811.641 223.453 809.339 222.620 807.547 220.953 C 805.755 219.286 804.859 217.240 804.859 214.812 C 804.859 212.312 805.755 210.271 807.547 208.688 C 809.339 207.104 811.641 206.312 814.453 206.312 C 817.297 206.312 819.607 207.104 821.383 208.688 C 823.159 210.271 824.047 212.312 824.047 214.812 C 824.047 217.344 823.159 219.417 821.383 221.031 C 819.607 222.646 817.297 223.453 814.453 223.453 M 822.672 286.000 L 806.016 286.000 L 806.016 232.000 L 822.672 232.000 L 822.672 286.000 M 835.172 283.094 L 835.172 266.219 C 838.224 268.792 841.544 270.719 845.133 272.000 C 848.721 273.281 852.344 273.922 856.000 273.922 C 858.146 273.922 860.018 273.729 861.617 273.344 C 863.216 272.958 864.552 272.422 865.625 271.734 C 866.698 271.047 867.497 270.237 868.023 269.305 C 868.549 268.372 868.812 267.365 868.812 266.281 C 868.812 264.802 868.391 263.482 867.547 262.320 C 866.703 261.159 865.552 260.086 864.094 259.102 C 862.635 258.117 860.904 257.169 858.898 256.258 C 856.893 255.346 854.729 254.417 852.406 253.469 C 846.500 251.000 842.099 247.992 839.203 244.445 C 836.307 240.898 834.859 236.609 834.859 231.578 C 834.859 227.641 835.648 224.258 837.227 221.430 C 838.805 218.602 840.956 216.273 843.680 214.445 C 846.404 212.617 849.560 211.271 853.148 210.406 C 856.737 209.542 860.536 209.109 864.547 209.109 C 868.484 209.109 871.974 209.346 875.016 209.820 C 878.057 210.294 880.859 211.026 883.422 212.016 L 883.422 227.781 C 882.151 226.906 880.771 226.133 879.281 225.461 C 877.792 224.789 876.255 224.234 874.672 223.797 C 873.089 223.359 871.513 223.034 869.945 222.820 C 868.378 222.607 866.891 222.500 865.484 222.500 C 863.557 222.500 861.802 222.685 860.219 223.055 C 858.635 223.424 857.299 223.945 856.211 224.617 C 855.122 225.289 854.279 226.089 853.680 227.016 C 853.081 227.943 852.781 228.990 852.781 230.156 C 852.781 231.417 853.115 232.549 853.781 233.555 C 854.448 234.560 855.398 235.510 856.633 236.406 C 857.867 237.302 859.362 238.180 861.117 239.039 C 862.872 239.898 864.859 240.786 867.078 241.703 C 870.099 242.964 872.812 244.307 875.219 245.734 C 877.625 247.161 879.690 248.771 881.414 250.562 C 883.138 252.354 884.458 254.401 885.375 256.703 C 886.292 259.005 886.750 261.688 886.750 264.750 C 886.750 268.969 885.948 272.510 884.344 275.375 C 882.740 278.240 880.568 280.560 877.828 282.336 C 875.089 284.112 871.898 285.385 868.258 286.156 C 864.617 286.927 860.776 287.312 856.734 287.312 C 852.589 287.312 848.643 286.961 844.898 286.258 C 841.154 285.555 837.911 284.500 835.172 283.094 M 946.438 232.000 L 924.500 290.328 C 919.219 304.349 911.271 311.359 900.656 311.359 C 896.615 311.359 893.292 310.906 890.688 310.000 L 890.688 296.703 C 892.906 298.005 895.318 298.656 897.922 298.656 C 902.203 298.656 905.188 296.635 906.875 292.594 L 909.734 285.891 L 887.781 232.000 L 906.250 232.000 L 916.312 264.859 C 916.948 266.891 917.443 269.297 917.797 272.078 L 918.000 272.078 C 918.323 270.036 918.906 267.661 919.750 264.953 L 929.922 232.000 L 946.438 232.000 M 1005.172 286.000 L 988.562 286.000 L 988.562 256.000 C 988.562 247.625 985.573 243.438 979.594 243.438 C 976.708 243.438 974.333 244.547 972.469 246.766 C 970.604 248.984 969.672 251.797 969.672 255.203 L 969.672 286.000 L 953.016 286.000 L 953.016 232.000 L 969.672 232.000 L 969.672 240.547 L 969.891 240.547 C 973.859 233.974 979.641 230.688 987.234 230.688 C 999.193 230.688 1005.172 238.104 1005.172 252.938 L 1005.172 286.000 M 1058.938 284.047 C 1055.177 286.224 1049.745 287.312 1042.641 287.312 C 1034.349 287.312 1027.635 284.799 1022.500 279.773 C 1017.365 274.747 1014.797 268.260 1014.797 260.312 C 1014.797 251.135 1017.547 243.904 1023.047 238.617 C 1028.547 233.331 1035.906 230.688 1045.125 230.688 C 1051.490 230.688 1056.094 231.531 1058.938 233.219 L 1058.938 247.344 C 1055.458 244.740 1051.573 243.438 1047.281 243.438 C 1042.500 243.438 1038.711 244.836 1035.914 247.633 C 1033.117 250.430 1031.719 254.286 1031.719 259.203 C 1031.719 263.984 1033.055 267.740 1035.727 270.469 C 1038.398 273.198 1042.073 274.562 1046.750 274.562 C 1050.906 274.562 1054.969 273.260 1058.938 270.656 L 1058.938 284.047" fill="#F4F7FB"/>
  <path d="M 588.828 357.125 L 588.828 354.125 C 589.172 354.427 589.583 354.701 590.062 354.945 C 590.542 355.190 591.047 355.396 591.578 355.562 C 592.109 355.729 592.643 355.857 593.180 355.945 C 593.716 356.034 594.208 356.078 594.656 356.078 C 596.219 356.078 597.388 355.789 598.164 355.211 C 598.940 354.633 599.328 353.797 599.328 352.703 C 599.328 352.120 599.198 351.609 598.938 351.172 C 598.677 350.734 598.320 350.339 597.867 349.984 C 597.414 349.630 596.878 349.289 596.258 348.961 C 595.638 348.633 594.969 348.286 594.250 347.922 C 593.490 347.536 592.781 347.146 592.125 346.750 C 591.469 346.354 590.898 345.919 590.414 345.445 C 589.930 344.971 589.549 344.435 589.273 343.836 C 588.997 343.237 588.859 342.536 588.859 341.734 C 588.859 340.745 589.076 339.883 589.508 339.148 C 589.940 338.414 590.510 337.810 591.219 337.336 C 591.927 336.862 592.734 336.510 593.641 336.281 C 594.547 336.052 595.469 335.938 596.406 335.938 C 598.542 335.938 600.099 336.193 601.078 336.703 L 601.078 339.562 C 599.797 338.677 598.151 338.234 596.141 338.234 C 595.589 338.234 595.034 338.292 594.477 338.406 C 593.919 338.521 593.424 338.708 592.992 338.969 C 592.560 339.229 592.208 339.568 591.938 339.984 C 591.667 340.401 591.531 340.906 591.531 341.500 C 591.531 342.052 591.633 342.531 591.836 342.938 C 592.039 343.344 592.344 343.714 592.750 344.047 C 593.156 344.380 593.648 344.703 594.227 345.016 C 594.805 345.328 595.474 345.672 596.234 346.047 C 597.016 346.422 597.753 346.823 598.445 347.250 C 599.138 347.677 599.747 348.148 600.273 348.664 C 600.799 349.180 601.216 349.750 601.523 350.375 C 601.831 351.000 601.984 351.714 601.984 352.516 C 601.984 353.589 601.776 354.495 601.359 355.234 C 600.943 355.974 600.378 356.578 599.664 357.047 C 598.951 357.516 598.130 357.852 597.203 358.055 C 596.276 358.258 595.297 358.359 594.266 358.359 C 593.922 358.359 593.497 358.333 592.992 358.281 C 592.487 358.229 591.971 358.148 591.445 358.039 C 590.919 357.930 590.422 357.797 589.953 357.641 C 589.484 357.484 589.109 357.312 588.828 357.125 M 617.266 357.281 C 616.078 358.000 614.667 358.359 613.031 358.359 C 610.823 358.359 609.039 357.641 607.680 356.203 C 606.320 354.766 605.641 352.901 605.641 350.609 C 605.641 348.057 606.372 346.008 607.836 344.461 C 609.299 342.914 611.250 342.141 613.688 342.141 C 615.052 342.141 616.255 342.391 617.297 342.891 L 617.297 345.438 C 616.151 344.625 614.922 344.219 613.609 344.219 C 612.016 344.219 610.714 344.786 609.703 345.922 C 608.693 347.057 608.188 348.552 608.188 350.406 C 608.188 352.219 608.664 353.651 609.617 354.703 C 610.570 355.755 611.849 356.281 613.453 356.281 C 614.807 356.281 616.078 355.828 617.266 354.922 L 617.266 357.281 M 629.969 345.016 C 629.531 344.682 628.906 344.516 628.094 344.516 C 627.031 344.516 626.146 345.016 625.438 346.016 C 624.729 347.016 624.375 348.375 624.375 350.094 L 624.375 358.000 L 621.891 358.000 L 621.891 342.500 L 624.375 342.500 L 624.375 345.688 L 624.438 345.688 C 624.781 344.604 625.318 343.758 626.047 343.148 C 626.776 342.539 627.589 342.234 628.484 342.234 C 629.130 342.234 629.625 342.302 629.969 342.438 L 629.969 345.016 M 646.531 350.875 L 635.594 350.875 C 635.635 352.594 636.099 353.924 636.984 354.867 C 637.870 355.810 639.089 356.281 640.641 356.281 C 642.391 356.281 643.995 355.703 645.453 354.547 L 645.453 356.875 C 644.099 357.865 642.297 358.359 640.047 358.359 C 637.859 358.359 636.141 357.656 634.891 356.250 C 633.641 354.844 633.016 352.865 633.016 350.312 C 633.016 347.896 633.701 345.930 635.070 344.414 C 636.440 342.898 638.135 342.141 640.156 342.141 C 642.188 342.141 643.758 342.797 644.867 344.109 C 645.977 345.422 646.531 347.240 646.531 349.562 L 646.531 350.875 M 643.984 348.766 C 643.974 347.328 643.630 346.211 642.953 345.414 C 642.276 344.617 641.328 344.219 640.109 344.219 C 638.943 344.219 637.951 344.638 637.133 345.477 C 636.315 346.315 635.812 347.411 635.625 348.766 L 643.984 348.766 M 663.719 350.875 L 652.781 350.875 C 652.823 352.594 653.286 353.924 654.172 354.867 C 655.057 355.810 656.276 356.281 657.828 356.281 C 659.578 356.281 661.182 355.703 662.641 354.547 L 662.641 356.875 C 661.286 357.865 659.484 358.359 657.234 358.359 C 655.047 358.359 653.328 357.656 652.078 356.250 C 650.828 354.844 650.203 352.865 650.203 350.312 C 650.203 347.896 650.888 345.930 652.258 344.414 C 653.628 342.898 655.323 342.141 657.344 342.141 C 659.375 342.141 660.945 342.797 662.055 344.109 C 663.164 345.422 663.719 347.240 663.719 349.562 L 663.719 350.875 M 661.172 348.766 C 661.161 347.328 660.818 346.211 660.141 345.414 C 659.464 344.617 658.516 344.219 657.297 344.219 C 656.130 344.219 655.138 344.638 654.320 345.477 C 653.503 346.315 653.000 347.411 652.812 348.766 L 661.172 348.766 M 681.312 358.000 L 678.828 358.000 L 678.828 349.156 C 678.828 345.865 677.630 344.219 675.234 344.219 C 673.995 344.219 672.969 344.688 672.156 345.625 C 671.344 346.562 670.938 347.740 670.938 349.156 L 670.938 358.000 L 668.453 358.000 L 668.453 342.500 L 670.938 342.500 L 670.938 345.078 L 671.000 345.078 C 672.167 343.120 673.859 342.141 676.078 342.141 C 677.776 342.141 679.073 342.688 679.969 343.781 C 680.865 344.875 681.312 346.458 681.312 348.531 L 681.312 358.000 M 688.500 358.328 C 688.031 358.328 687.635 358.161 687.312 357.828 C 686.990 357.495 686.828 357.099 686.828 356.641 C 686.828 356.172 686.990 355.768 687.312 355.430 C 687.635 355.091 688.031 354.922 688.500 354.922 C 688.979 354.922 689.385 355.091 689.719 355.430 C 690.052 355.768 690.219 356.172 690.219 356.641 C 690.219 357.099 690.052 357.495 689.719 357.828 C 689.385 358.161 688.979 358.328 688.500 358.328 M 704.328 357.125 L 704.328 354.125 C 704.672 354.427 705.083 354.701 705.562 354.945 C 706.042 355.190 706.547 355.396 707.078 355.562 C 707.609 355.729 708.143 355.857 708.680 355.945 C 709.216 356.034 709.708 356.078 710.156 356.078 C 711.719 356.078 712.888 355.789 713.664 355.211 C 714.440 354.633 714.828 353.797 714.828 352.703 C 714.828 352.120 714.698 351.609 714.438 351.172 C 714.177 350.734 713.820 350.339 713.367 349.984 C 712.914 349.630 712.378 349.289 711.758 348.961 C 711.138 348.633 710.469 348.286 709.750 347.922 C 708.990 347.536 708.281 347.146 707.625 346.750 C 706.969 346.354 706.398 345.919 705.914 345.445 C 705.430 344.971 705.049 344.435 704.773 343.836 C 704.497 343.237 704.359 342.536 704.359 341.734 C 704.359 340.745 704.576 339.883 705.008 339.148 C 705.440 338.414 706.010 337.810 706.719 337.336 C 707.427 336.862 708.234 336.510 709.141 336.281 C 710.047 336.052 710.969 335.938 711.906 335.938 C 714.042 335.938 715.599 336.193 716.578 336.703 L 716.578 339.562 C 715.297 338.677 713.651 338.234 711.641 338.234 C 711.089 338.234 710.534 338.292 709.977 338.406 C 709.419 338.521 708.924 338.708 708.492 338.969 C 708.060 339.229 707.708 339.568 707.438 339.984 C 707.167 340.401 707.031 340.906 707.031 341.500 C 707.031 342.052 707.133 342.531 707.336 342.938 C 707.539 343.344 707.844 343.714 708.250 344.047 C 708.656 344.380 709.148 344.703 709.727 345.016 C 710.305 345.328 710.974 345.672 711.734 346.047 C 712.516 346.422 713.253 346.823 713.945 347.250 C 714.638 347.677 715.247 348.148 715.773 348.664 C 716.299 349.180 716.716 349.750 717.023 350.375 C 717.331 351.000 717.484 351.714 717.484 352.516 C 717.484 353.589 717.276 354.495 716.859 355.234 C 716.443 355.974 715.878 356.578 715.164 357.047 C 714.451 357.516 713.630 357.852 712.703 358.055 C 711.776 358.258 710.797 358.359 709.766 358.359 C 709.422 358.359 708.997 358.333 708.492 358.281 C 707.987 358.229 707.471 358.148 706.945 358.039 C 706.419 357.930 705.922 357.797 705.453 357.641 C 704.984 357.484 704.609 357.312 704.328 357.125 M 728.672 358.359 C 726.391 358.359 724.565 357.635 723.195 356.188 C 721.826 354.740 721.141 352.823 721.141 350.438 C 721.141 347.833 721.852 345.799 723.273 344.336 C 724.695 342.872 726.620 342.141 729.047 342.141 C 731.359 342.141 733.164 342.852 734.461 344.273 C 735.758 345.695 736.406 347.667 736.406 350.188 C 736.406 352.656 735.706 354.635 734.305 356.125 C 732.904 357.615 731.026 358.359 728.672 358.359 M 728.859 344.219 C 727.266 344.219 726.005 344.763 725.078 345.852 C 724.151 346.940 723.688 348.438 723.688 350.344 C 723.688 352.177 724.156 353.625 725.094 354.688 C 726.031 355.750 727.286 356.281 728.859 356.281 C 730.464 356.281 731.698 355.760 732.562 354.719 C 733.427 353.677 733.859 352.198 733.859 350.281 C 733.859 348.344 733.427 346.849 732.562 345.797 C 731.698 344.745 730.464 344.219 728.859 344.219 M 753.922 358.000 L 751.438 358.000 L 751.438 355.547 L 751.375 355.547 C 750.344 357.422 748.750 358.359 746.594 358.359 C 742.906 358.359 741.062 356.161 741.062 351.766 L 741.062 342.500 L 743.516 342.500 L 743.516 351.375 C 743.516 354.646 744.771 356.281 747.281 356.281 C 748.490 356.281 749.484 355.833 750.266 354.938 C 751.047 354.042 751.438 352.875 751.438 351.438 L 751.438 342.500 L 753.922 342.500 L 753.922 358.000 M 773.438 358.000 L 770.953 358.000 L 770.953 349.156 C 770.953 345.865 769.755 344.219 767.359 344.219 C 766.120 344.219 765.094 344.688 764.281 345.625 C 763.469 346.562 763.062 347.740 763.062 349.156 L 763.062 358.000 L 760.578 358.000 L 760.578 342.500 L 763.062 342.500 L 763.062 345.078 L 763.125 345.078 C 764.292 343.120 765.984 342.141 768.203 342.141 C 769.901 342.141 771.198 342.688 772.094 343.781 C 772.990 344.875 773.438 346.458 773.438 348.531 L 773.438 358.000 M 793.000 358.000 L 790.516 358.000 L 790.516 355.359 L 790.453 355.359 C 789.297 357.359 787.521 358.359 785.125 358.359 C 783.177 358.359 781.620 357.667 780.453 356.281 C 779.286 354.896 778.703 353.005 778.703 350.609 C 778.703 348.047 779.349 345.995 780.641 344.453 C 781.932 342.911 783.651 342.141 785.797 342.141 C 787.932 342.141 789.484 342.979 790.453 344.656 L 790.516 344.656 L 790.516 335.047 L 793.000 335.047 L 793.000 358.000 M 790.516 350.984 L 790.516 348.703 C 790.516 347.453 790.102 346.393 789.273 345.523 C 788.445 344.654 787.396 344.219 786.125 344.219 C 784.604 344.219 783.411 344.776 782.547 345.891 C 781.682 347.005 781.250 348.536 781.250 350.484 C 781.250 352.276 781.667 353.690 782.500 354.727 C 783.333 355.763 784.448 356.281 785.844 356.281 C 787.229 356.281 788.354 355.781 789.219 354.781 C 790.083 353.781 790.516 352.516 790.516 350.984 M 799.812 358.328 C 799.344 358.328 798.948 358.161 798.625 357.828 C 798.302 357.495 798.141 357.099 798.141 356.641 C 798.141 356.172 798.302 355.768 798.625 355.430 C 798.948 355.091 799.344 354.922 799.812 354.922 C 800.292 354.922 800.698 355.091 801.031 355.430 C 801.365 355.768 801.531 356.172 801.531 356.641 C 801.531 357.099 801.365 357.495 801.031 357.828 C 800.698 358.161 800.292 358.328 799.812 358.328 M 827.922 358.000 L 816.656 358.000 L 816.656 336.297 L 819.203 336.297 L 819.203 355.703 L 827.922 355.703 L 827.922 358.000 M 833.781 338.562 C 833.344 338.562 832.969 338.411 832.656 338.109 C 832.344 337.807 832.188 337.422 832.188 336.953 C 832.188 336.495 832.344 336.112 832.656 335.805 C 832.969 335.497 833.344 335.344 833.781 335.344 C 834.240 335.344 834.628 335.497 834.945 335.805 C 835.263 336.112 835.422 336.495 835.422 336.953 C 835.422 337.401 835.263 337.781 834.945 338.094 C 834.628 338.406 834.240 338.562 833.781 338.562 M 835.000 358.000 L 832.516 358.000 L 832.516 342.500 L 835.000 342.500 L 835.000 358.000 M 854.938 356.766 C 854.938 362.453 852.208 365.297 846.750 365.297 C 844.833 365.297 843.161 364.932 841.734 364.203 L 841.734 361.719 C 843.474 362.688 845.135 363.172 846.719 363.172 C 850.542 363.172 852.453 361.146 852.453 357.094 L 852.453 355.391 L 852.391 355.391 C 851.203 357.370 849.427 358.359 847.062 358.359 C 845.135 358.359 843.583 357.672 842.406 356.297 C 841.229 354.922 840.641 353.073 840.641 350.750 C 840.641 348.115 841.273 346.021 842.539 344.469 C 843.805 342.917 845.536 342.141 847.734 342.141 C 849.828 342.141 851.380 342.979 852.391 344.656 L 852.453 344.656 L 852.453 342.500 L 854.938 342.500 L 854.938 356.766 M 852.453 350.984 L 852.453 348.703 C 852.453 347.474 852.036 346.419 851.203 345.539 C 850.370 344.659 849.333 344.219 848.094 344.219 C 846.552 344.219 845.349 344.779 844.484 345.898 C 843.620 347.018 843.188 348.578 843.188 350.578 C 843.188 352.307 843.604 353.690 844.438 354.727 C 845.271 355.763 846.370 356.281 847.734 356.281 C 849.130 356.281 850.266 355.786 851.141 354.797 C 852.016 353.807 852.453 352.536 852.453 350.984 M 873.750 358.000 L 871.266 358.000 L 871.266 349.062 C 871.266 345.833 870.068 344.219 867.672 344.219 C 866.464 344.219 865.445 344.688 864.617 345.625 C 863.789 346.562 863.375 347.760 863.375 349.219 L 863.375 358.000 L 860.891 358.000 L 860.891 335.047 L 863.375 335.047 L 863.375 345.078 L 863.438 345.078 C 864.625 343.120 866.318 342.141 868.516 342.141 C 872.005 342.141 873.750 344.245 873.750 348.453 L 873.750 358.000 M 887.266 357.844 C 886.682 358.167 885.911 358.328 884.953 358.328 C 882.234 358.328 880.875 356.818 880.875 353.797 L 880.875 344.625 L 878.219 344.625 L 878.219 342.500 L 880.875 342.500 L 880.875 338.719 L 883.359 337.906 L 883.359 342.500 L 887.266 342.500 L 887.266 344.625 L 883.359 344.625 L 883.359 353.359 C 883.359 354.391 883.536 355.130 883.891 355.578 C 884.245 356.026 884.828 356.250 885.641 356.250 C 886.266 356.250 886.807 356.078 887.266 355.734 L 887.266 357.844 M 893.125 358.328 C 892.656 358.328 892.260 358.161 891.938 357.828 C 891.615 357.495 891.453 357.099 891.453 356.641 C 891.453 356.172 891.615 355.768 891.938 355.430 C 892.260 355.091 892.656 354.922 893.125 354.922 C 893.604 354.922 894.010 355.091 894.344 355.430 C 894.677 355.768 894.844 356.172 894.844 356.641 C 894.844 357.099 894.677 357.495 894.344 357.828 C 894.010 358.161 893.604 358.328 893.125 358.328 M 912.516 358.000 L 909.969 358.000 L 909.969 336.297 L 912.516 336.297 L 912.516 358.000 M 931.688 358.000 L 929.203 358.000 L 929.203 349.156 C 929.203 345.865 928.005 344.219 925.609 344.219 C 924.370 344.219 923.344 344.688 922.531 345.625 C 921.719 346.562 921.312 347.740 921.312 349.156 L 921.312 358.000 L 918.828 358.000 L 918.828 342.500 L 921.312 342.500 L 921.312 345.078 L 921.375 345.078 C 922.542 343.120 924.234 342.141 926.453 342.141 C 928.151 342.141 929.448 342.688 930.344 343.781 C 931.240 344.875 931.688 346.458 931.688 348.531 L 931.688 358.000 M 946.266 357.438 L 946.266 354.781 C 947.620 355.781 949.109 356.281 950.734 356.281 C 952.911 356.281 954.000 355.552 954.000 354.094 C 954.000 353.677 953.906 353.326 953.719 353.039 C 953.531 352.753 953.279 352.497 952.961 352.273 C 952.643 352.049 952.271 351.852 951.844 351.680 C 951.417 351.508 950.953 351.323 950.453 351.125 C 949.766 350.854 949.161 350.581 948.641 350.305 C 948.120 350.029 947.688 349.716 947.344 349.367 C 947.000 349.018 946.740 348.622 946.562 348.180 C 946.385 347.737 946.297 347.214 946.297 346.609 C 946.297 345.891 946.464 345.250 946.797 344.688 C 947.130 344.125 947.573 343.656 948.125 343.281 C 948.677 342.906 949.310 342.622 950.023 342.430 C 950.737 342.237 951.469 342.141 952.219 342.141 C 953.562 342.141 954.766 342.370 955.828 342.828 L 955.828 345.344 C 954.693 344.594 953.380 344.219 951.891 344.219 C 951.432 344.219 951.016 344.273 950.641 344.383 C 950.266 344.492 949.945 344.643 949.680 344.836 C 949.414 345.029 949.206 345.258 949.055 345.523 C 948.904 345.789 948.828 346.083 948.828 346.406 C 948.828 346.812 948.904 347.151 949.055 347.422 C 949.206 347.693 949.422 347.935 949.703 348.148 C 949.984 348.362 950.326 348.555 950.727 348.727 C 951.128 348.898 951.589 349.083 952.109 349.281 C 952.797 349.542 953.411 349.810 953.953 350.086 C 954.495 350.362 954.958 350.674 955.344 351.023 C 955.729 351.372 956.026 351.773 956.234 352.227 C 956.443 352.680 956.547 353.224 956.547 353.859 C 956.547 354.620 956.378 355.284 956.039 355.852 C 955.701 356.419 955.247 356.888 954.680 357.258 C 954.112 357.628 953.461 357.904 952.727 358.086 C 951.992 358.268 951.219 358.359 950.406 358.359 C 948.812 358.359 947.432 358.052 946.266 357.438 M 973.719 342.500 L 966.594 360.484 C 965.323 363.693 963.536 365.297 961.234 365.297 C 960.589 365.297 960.047 365.229 959.609 365.094 L 959.609 362.875 C 960.151 363.052 960.641 363.141 961.078 363.141 C 962.339 363.141 963.281 362.396 963.906 360.906 L 965.141 357.969 L 959.094 342.500 L 961.844 342.500 L 966.031 354.422 C 966.083 354.578 966.193 354.974 966.359 355.609 L 966.438 355.609 C 966.490 355.370 966.594 354.984 966.750 354.453 L 971.156 342.500 L 973.719 342.500 M 990.438 358.000 L 987.953 358.000 L 987.953 349.156 C 987.953 345.865 986.755 344.219 984.359 344.219 C 983.120 344.219 982.094 344.688 981.281 345.625 C 980.469 346.562 980.062 347.740 980.062 349.156 L 980.062 358.000 L 977.578 358.000 L 977.578 342.500 L 980.062 342.500 L 980.062 345.078 L 980.125 345.078 C 981.292 343.120 982.984 342.141 985.203 342.141 C 986.901 342.141 988.198 342.688 989.094 343.781 C 989.990 344.875 990.438 346.458 990.438 348.531 L 990.438 358.000 M 1007.328 357.281 C 1006.141 358.000 1004.729 358.359 1003.094 358.359 C 1000.885 358.359 999.102 357.641 997.742 356.203 C 996.383 354.766 995.703 352.901 995.703 350.609 C 995.703 348.057 996.435 346.008 997.898 344.461 C 999.362 342.914 1001.312 342.141 1003.750 342.141 C 1005.115 342.141 1006.318 342.391 1007.359 342.891 L 1007.359 345.438 C 1006.214 344.625 1004.984 344.219 1003.672 344.219 C 1002.078 344.219 1000.776 344.786 999.766 345.922 C 998.755 347.057 998.250 348.552 998.250 350.406 C 998.250 352.219 998.727 353.651 999.680 354.703 C 1000.633 355.755 1001.911 356.281 1003.516 356.281 C 1004.870 356.281 1006.141 355.828 1007.328 354.922 L 1007.328 357.281 M 1012.812 358.328 C 1012.344 358.328 1011.948 358.161 1011.625 357.828 C 1011.302 357.495 1011.141 357.099 1011.141 356.641 C 1011.141 356.172 1011.302 355.768 1011.625 355.430 C 1011.948 355.091 1012.344 354.922 1012.812 354.922 C 1013.292 354.922 1013.698 355.091 1014.031 355.430 C 1014.365 355.768 1014.531 356.172 1014.531 356.641 C 1014.531 357.099 1014.365 357.495 1014.031 357.828 C 1013.698 358.161 1013.292 358.328 1012.812 358.328" fill="#AEB8CA"/>
  <rect x="587" y="402" width="390" height="7" rx="3.5" fill="url(#brand)"/>
</svg>
