<?xml version="1.0" encoding="utf-8"?><!-- Uploaded to: SVG Repo, www.svgrepo.com, Generator: SVG Repo Mixer Tools -->
<svg width="800px" height="800px" viewBox="0 0 24 24" fill="none" xmlns="http://www.w3.org/2000/svg">
<path d="M3 12H21M12 8V12M6.5 12V16M17.5 12V16M10.1 8H13.9C14.4601 8 14.7401 8 14.954 7.89101C15.1422 7.79513 15.2951 7.64215 15.391 7.45399C15.5 7.24008 15.5 6.96005 15.5 6.4V4.6C15.5 4.03995 15.5 3.75992 15.391 3.54601C15.2951 3.35785 15.1422 3.20487 14.954 3.10899C14.7401 3 14.4601 3 13.9 3H10.1C9.53995 3 9.25992 3 9.04601 3.10899C8.85785 3.20487 8.70487 3.35785 8.60899 3.54601C8.5 3.75992 8.5 4.03995 8.5 4.6V6.4C8.5 6.96005 8.5 7.24008 8.60899 7.45399C8.70487 7.64215 8.85785 7.79513 9.04601 7.89101C9.25992 8 9.53995 8 10.1 8ZM15.6 21H19.4C19.9601 21 20.2401 21 20.454 20.891C20.6422 20.7951 20.7951 20.6422 20.891 20.454C21 20.2401 21 19.9601 21 19.4V17.6C21 17.0399 21 16.7599 20.891 16.546C20.7951 16.3578 20.6422 16.2049 20.454 16.109C20.2401 16 19.9601 16 19.4 16H15.6C15.0399 16 14.7599 16 14.546 16.109C14.3578 16.2049 14.2049 16.3578 14.109 16.546C14 16.7599 14 17.0399 14 17.6V19.4C14 19.9601 14 20.2401 14.109 20.454C14.2049 20.6422 14.3578 20.7951 14.546 20.891C14.7599 21 15.0399 21 15.6 21ZM4.6 21H8.4C8.96005 21 9.24008 21 9.45399 20.891C9.64215 20.7951 9.79513 20.6422 9.89101 20.454C10 20.2401 10 19.9601 10 19.4V17.6C10 17.0399 10 16.7599 9.89101 16.546C9.79513 16.3578 9.64215 16.2049 9.45399 16.109C9.24008 16 8.96005 16 8.4 16H4.6C4.03995 16 3.75992 16 3.54601 16.109C3.35785 16.2049 3.20487 16.3578 3.10899 16.546C3 16.7599 3 17.0399 3 17.6V19.4C3 19.9601 3 20.2401 3.10899 20.454C3.20487 20.6422 3.35785 20.7951 3.54601 20.891C3.75992 21 4.03995 21 4.6 21Z" stroke="#000000" stroke-width="2" stroke-linecap="round" stroke-linejoin="round"/>
</svg>